#!OML:ASF F:\VICON\USERDATA\INSTALL\rory3\rory3.ASF
:FULLY-SPECIFIED
:DEGREES
28
root -0.050484574297764706 17.9590495400435 9.642616051381841 -1.464455584277443 -3.687866407484334 1.8920629081417963
lfemur 13.464801110600476 -3.8791391402843205 -25.34914879787231
ltibia 30.912753001802983
lfoot -2.6281515768665504 -7.060358167179426
ltoes 1.0251055615078468
rfemur -26.260411210359223 2.7968884252123374 21.373731859775344
rtibia 30.192452088262478
rfoot -8.150088836925269 -0.773543580173782
rtoes -1.3381058110535906
lowerback 9.897846954458736 -1.1703569660920938 -3.2306869125042845
upperback 0.3003597157022678 -1.8531006769377245 1.4948041199960747
thorax -5.14518006338904 -0.75343928390634 3.3300956624483327
lowerneck -16.43505897995887 -2.469855469889162 -1.9751124997782132
upperneck 22.8667656009881 -2.9118735235117787 -0.15733170798609086
head 9.953214165239704 -1.549653558875712 0.02551560041224453
lclavicle 4.557080666411182e-16 -7.583108887496919e-16
lhumerus -24.050587238314385 2.159130435423631 78.18325789574575
lradius 31.729583753506482
lwrist 6.738602802291515
lhand -29.56245840843486 18.31635641684708
lfingers nan
lthumb -2.8765108695017942 48.46663167726476
rclavicle 3.812248744513539e-16 -7.959329957402688e-16
rhumerus -36.16904195190065 -26.067264831065174 -74.6128987007588
rradius 26.512900599565356
rwrist 2.215190343618462
rhand -17.656020982865314 22.680436856533024
rfingers nan
rthumb 8.76004561950983 -6.934470692530952
29
root -0.022617952641701855 17.983891931951145 10.801370955129155 -1.3438199785513378 -3.9905788732601253 0.7115450435002264
lfemur 12.805163644843208 -3.5737585451669744 -23.794878293898357
ltibia 36.49997111293398
lfoot -3.6596547703026845 -5.495303857117741
ltoes 0.509975216249003
rfemur -25.011521383798957 3.33408561143969 22.724894108734787
rtibia 27.06630857930641
rfoot -10.407849948188048 -3.972156117101191
rtoes -2.534076799140933
lowerback 9.699279863449656 -1.2246382776187874 -2.5083066002937713
upperback 0.25055157385574545 -1.8367649815684053 1.7114053525087405
thorax -5.2851277378327115 -0.7800721205315786 3.176711898666404
lowerneck -16.437098171050177 -2.488391359354074 -1.9104451807820737
upperneck 22.950679818658124 -2.959795585567941 -0.23100877849096435
head 9.99418472516217 -1.5662613549338067 -0.024298935011762973
lclavicle 4.718377790505123e-16 -7.450768358694199e-16
lhumerus -24.8080473219949 1.5506146925376996 78.52093567035611
lradius 30.919101689695815
lwrist 6.54835927392513
lhand -29.586207077923564 18.648509404392176
lfingers nan
lthumb -2.908750423260549 48.77238651787944
rclavicle 3.829658191022804e-16 -7.950100527233441e-16
rhumerus -36.060500487590545 -27.293844891233313 -73.59803982140531
rradius 26.443632467404218
rwrist 3.2569639283919996
rhand -17.72289324861686 22.539184771247406
rfingers nan
rthumb 8.737464118336254 -6.997220381766336
30
root 0.00928917497936943 17.99818469642214 11.986350107713182 -1.4434216210282127 -3.947289780475324 0.3617637798990978
lfemur 10.100583343793474 -2.946288233402081 -21.58315055175984
ltibia 42.656425539458006
lfoot -4.373499555758694 -2.5895817911173413
ltoes -1.1608717587350226
rfemur -22.677373303476912 3.4219260374001044 23.489447897467198
rtibia 25.165077634883858
rfoot -13.140884119084971 -6.8929543835345
rtoes -4.360250711496327
lowerback 9.578374734373552 -1.290645617167332 -2.001275171332363
upperback 0.2421096009091822 -1.7789040319957348 1.8684656868678773
thorax -5.318298334547852 -0.7510728487924443 3.117565553597416
lowerneck -16.553992667593874 -2.507019159743831 -1.877562992144208
upperneck 22.933655706842117 -2.995888615372728 -0.23098120241048936
head 10.038273335477252 -1.5761165995616708 -0.03905957872090206
lclavicle 4.605529204095468e-16 -7.529818371818789e-16
lhumerus -25.46587654745428 0.11535198779011147 78.8663554835541
lradius 29.96377121908869
lwrist 6.411360104267459
lhand -29.645617221750246 18.786690808759595
lfingers nan
lthumb -2.9394078741478826 49.06636059356809
rclavicle 3.897571085947809e-16 -7.906988766067895e-16
rhumerus -35.680724932204996 -28.13339310537337 -72.88634759059569
rradius 26.331126179274545
rwrist 3.967882377346737
rhand -17.752339548850507 22.35650876113016
rfingers nan
rthumb 8.700685138525959 -7.1990621848105265
31
root 0.07987569615995599 17.99831017683377 14.0215683256277 -2.000116356953337 -3.60426303639081 -0.15203825689345285
lfemur 6.6260208945703845 -2.2263274115169613 -19.75911321500336
ltibia 48.72262519404437
lfoot -4.758033325505432 -0.9455222494740774
ltoes -2.6415368807282342
rfemur -19.595170100416645 3.324488636617128 24.33697359185403
rtibia 23.96037752161227
rfoot -16.45522872232107 -8.674038935407065
rtoes -6.618419547548221
lowerback 9.558908584701639 -1.2187556871659169 -1.2775588305480903
upperback 0.22090427928078737 -1.560987425108232 1.9658648086895631
thorax -5.308495671644352 -0.6734046125247621 2.9637172281310935
lowerneck -16.53642902020128 -2.5185399819972005 -1.8158697224201388
upperneck 22.826000098808542 -3.0371288717735334 -0.2161071094464121
head 9.992830837959517 -1.5924234600175682 -0.038728562976742556
lclavicle 4.650336792624666e-16 -7.529967626091431e-16
lhumerus -26.073209367564495 -1.1601556470281347 79.3024922589105
lradius 28.14035917960943
lwrist 6.360407491789159
lhand -29.522854144226724 18.423208132373983
lfingers nan
lthumb -2.870046191014306 48.55273631231862
rclavicle 3.6599674298313355e-16 -8.106682676587995e-16
rhumerus -34.83719068033269 -28.893100510798654 -72.69745362390283
rradius 26.3700154183573
rwrist 4.122034434488938
rhand -17.730870063065932 22.22890593184937
rfingers nan
rthumb 8.699176408346977 -7.349918001818595
32
root 0.14487251923481165 17.988797118631965 16.83511347147538 -2.447229395847399 -3.065666478889527 -1.585375267620539
lfemur 2.4458269339574397 -1.4828045891723005 -17.304581025586298
ltibia 54.111900355446814
lfoot -5.090836788081237 0.18322557813416118
ltoes -3.501621607826146
rfemur -16.04309345186262 3.5014704068165736 25.943401547930446
rtibia 23.554710690278988
rfoot -19.695587006220087 -9.72271229256744
rtoes -7.818109381854825
lowerback 9.544533430027526 -1.0391489372941756 0.32690040738672044
upperback 0.24566835432221734 -1.034639900890761 2.2627496934916604
thorax -5.376030736578789 -0.472863054601609 2.5504518870265693
lowerneck -16.586181457720613 -2.53242970334768 -1.779875698649266
upperneck 22.730948063266464 -3.0593760135906765 -0.15471995384925552
head 9.898637150883488 -1.612125609622709 -0.017645939726873908
lclavicle 4.597155428968239e-16 -7.561696424303617e-16
lhumerus -26.494071615523218 -1.7518526061923598 79.67119017026599
lradius 25.55653755261667
lwrist 6.83581802922563
lhand -29.355646827302888 18.42920029076778
lfingers nan
lthumb -2.647907044731858 48.64801970933376
rclavicle 3.877384621816294e-16 -7.952943377026164e-16
rhumerus -33.64373850428316 -28.762075866692797 -73.09466284248249
rradius 26.418414525149856
rwrist 3.865530114412899
rhand -17.717688359412556 22.136874554785326
rfingers nan
rthumb 8.67808871077153 -7.380336359599175
33
root 0.19070965176741528 17.96728002367864 18.95007129670892 -2.9161136432453834 -3.0010884340490147 -2.911812623496413
lfemur -2.1759722125566476 -0.6241298526764494 -15.111283385959213
ltibia 58.45233246785209
lfoot -5.117349127956417 0.6302484049799988
ltoes -4.95405939369939
rfemur -12.29149964152276 4.09078458010692 27.62546128718056
rtibia 23.894858284498348
rfoot -21.99352682718141 -10.352394737946092
rtoes -4.8077359977479315
lowerback 9.575663605137514 -0.6994592622890543 1.7979391317332314
upperback 0.25495021786886474 -0.2919849082154331 2.474881737620575
thorax -5.509492525047293 -0.13407695492575827 2.022595504107818
lowerneck -16.57585859413562 -2.5523748181962986 -1.6538538837934962
upperneck 22.582841809517895 -3.0981967582393435 -0.14045838032095492
head 9.816762313233232 -1.6315763705014243 -0.026262947791586125
lclavicle 4.706905342534268e-16 -7.502913535890413e-16
lhumerus -26.76389511984098 -1.5076441468161121 79.93930074000747
lradius 22.708805466283938
lwrist 7.694942630217941
lhand -29.272949756728142 18.117948418603564
lfingers nan
lthumb -2.5816144988715513 48.27781008161325
rclavicle 3.8667600367164194e-16 -7.998444125967854e-16
rhumerus -32.07940556484472 -27.76886506517839 -73.77578587543368
rradius 26.53729981984221
rwrist 3.4897215199441383
rhand -17.82730854906512 21.921511399031456
rfingers nan
rthumb 8.630033496036724 -7.486506287558374
34
root 0.24222528140427935 17.933878913825694 21.71053891838098 -3.3748085597186748 -3.115195190306975 -3.55281530974293
lfemur -6.829356539494896 0.24594370522160713 -13.630814011799544
ltibia 61.486503852570934
lfoot -4.996744971666934 0.18464718903283428
ltoes -5.467480055540544
rfemur -8.521402989731849 4.879928186788837 28.967313879264626
rtibia 24.601247866812983
rfoot -23.040576368238973 -10.62036061442652
rtoes -0.312398654914932
lowerback 9.6522182541224 -0.3228993391478991 2.6695853822969617
upperback 0.2720569480361135 0.3748665794341016 2.568235859234398
thorax -5.648326370555977 0.17790320598292692 1.4889950299701966
lowerneck -16.617787995070408 -2.5944102101202957 -1.5102045361758565
upperneck 22.569018958606005 -3.18159190470929 -0.07750248384904124
head 9.846096487845456 -1.6591182226784302 -0.039645920188319805
lclavicle 4.888703282865157e-16 -7.412482250924811e-16
lhumerus -26.968150639712274 -0.8186783811833331 80.20120853390314
lradius 20.405694069631338
lwrist 8.256685365069945
lhand -29.10372806847312 17.69330998821596
lfingers nan
lthumb -2.4013472651586962 47.801929333268305
rclavicle 3.868072167700336e-16 -8.064792429929031e-16
rhumerus -30.254017990990175 -26.09342075323699 -74.66435733768574
rradius 26.79412934297703
rwrist 2.963770060493479
rhand -17.813590038696923 21.911686693952273
rfingers nan
rthumb 8.575637390342369 -7.63051753576535
